
<svg version="1.1" id="Layer_1" xmlns="http://www.w3.org/2000/svg" xmlns:xlink="http://www.w3.org/1999/xlink" x="0px" y="0px"
	 viewBox="0 0 960 960" style="enable-background:new 0 0 960 960;" height="128" width="128" xml:space="preserve">
<style type="text/css">
	.st0{fill:#4D4D4D;}
	.st1{fill:#C69C6D;}
	.st2{fill:#F2F2F2;}
	.st3{fill:#A67C52;}
	.st4{fill:#F69B76;}
</style>
<g>
	<path class="st0" d="M701.4,502.3H258.6V176.9c0-20.5,16.6-37.1,37.1-37.1h368.6c20.5,0,37.1,16.6,37.1,37.1V502.3z"/>
	<path class="st1" d="M701.4,502.3H258.6v70.5c0,31.4,25.4,56.8,56.8,56.8h329.1c31.4,0,56.8-25.4,56.8-56.8v-70.5H701.4z"/>
	<rect x="258.6" y="435.5" class="st2" width="442.7" height="66.7"/>
	<path class="st1" d="M525.5,626h-91.1c0,0,9.3,21.7,4.9,52.6c-2.6,18.1-10.2,41.4-16.1,57.7c-13.7,37.9,11.3,80.3,51.5,83.6
		c1.7,0.1,3.5,0.2,5.3,0.2c10.6,0,20.7-2.6,29.5-7.2c26.9-13.9,38.1-46.7,27.9-75.2c-6.1-16.9-14.4-42.2-17-60.2
		C516.3,648.3,525.5,626,525.5,626z M480,791.9c-15.7,0-28.5-12.7-28.5-28.5c0-15.7,12.7-28.5,28.5-28.5c15.7,0,28.5,12.7,28.5,28.5
		C508.5,779.1,495.7,791.9,480,791.9z"/>
	<path class="st3" d="M703.6,524.8H256.4c-6.2,0-11.3-5-11.3-11.3l0,0c0-6.2,5-11.3,11.3-11.3h447.1c6.2,0,11.3,5,11.3,11.3l0,0
		C714.8,519.8,709.8,524.8,703.6,524.8z"/>
	<path class="st4" d="M258.6,290.4h65.5c9.2,0,16.7,7.5,16.7,16.7v20.1c0,8.7,7,15.7,15.7,15.7l0,0c8.7,0,15.7-7,15.7-15.7v-20.1
		c0-9.2,7.5-16.7,16.7-16.7h10c9.2,0,16.7,7.5,16.7,16.7v79.7c0,8.5,6.9,15.4,15.4,15.4l0,0c8.5,0,15.4-6.9,15.4-15.4v-79.7
		c0-9.2,7.5-16.7,16.7-16.7l0,0c9.2,0,16.7,7.5,16.7,16.7V318c0,7.9,6.4,14.2,14.2,14.2l0,0c7.9,0,14.2-6.4,14.2-14.2v-10.9
		c0-9.2,7.5-16.7,16.7-16.7h176.2V174.2c0-19-15.4-34.4-34.4-34.4H293c-19,0-34.4,15.4-34.4,34.4V290.4z"/>
</g>
</svg>
